<svg width="77" height="20" viewBox="0 0 77 20" fill="none" xmlns="http://www.w3.org/2000/svg">
<path d="M4.24024 19.3431C4.29295 19.5541 4.14282 19.505 4.03901 19.505C2.87474 19.5067 1.71047 19.5067 0.546199 19.5067C0.368923 19.5067 0.193247 19.5067 0 19.5067C0 15.3849 0 11.2745 0 7.14776C1.40703 7.14776 2.81405 7.14776 4.25622 7.14776C4.23386 7.61228 4.2115 8.07353 4.18914 8.53478C5.21446 7.09051 6.67579 6.79283 8.24732 6.93022C9.87634 7.07252 11.1859 7.79875 11.8487 9.49654C12.0867 9.14324 12.2799 8.85864 12.4732 8.5724C13.0737 7.67934 13.9074 7.11014 14.9375 6.93022C15.5907 6.81736 16.2679 6.91713 16.9211 7.09215C18.475 7.51087 19.4205 8.55278 19.8054 10.1132C19.9395 10.6529 19.9635 11.232 19.9667 11.7946C19.9843 14.32 19.9763 16.8455 19.9779 19.3725C19.9779 19.4069 19.9683 19.4412 19.9603 19.4903C18.5692 19.4903 17.1878 19.4903 15.7744 19.4903C15.7744 19.3987 15.7744 19.3022 15.7744 19.2073C15.7744 17.1088 15.7839 15.0103 15.7664 12.9101C15.7632 12.4538 15.7232 11.9811 15.6003 11.5444C15.423 10.9146 14.9598 10.4452 14.2555 10.3929C13.9409 10.37 13.6502 10.3242 13.3308 10.4403C12.6968 10.6726 12.1953 11.3088 12.1985 11.9893C12.2081 14.006 12.2193 16.0227 12.2288 18.0395C12.2304 18.5187 12.2288 18.9963 12.2288 19.4887C12.0963 19.4968 12.018 19.505 11.9414 19.505C10.7324 19.5067 9.52339 19.5001 8.3144 19.5099C8.06845 19.5116 7.97582 19.4543 7.97901 19.1779C8.00456 17.2102 8.02053 15.2425 8.02533 13.2765C8.02692 12.6239 8.00296 11.9631 7.74264 11.3546C7.48711 10.7543 7.05749 10.4027 6.37075 10.3863C6.04974 10.3781 5.74789 10.3798 5.42687 10.4387C4.85033 10.5433 4.41433 11.1682 4.30413 11.7177C4.19553 12.2673 4.19553 12.8153 4.23386 13.3763C4.28336 14.0992 4.24983 14.8287 4.24823 15.5566C4.24663 16.8013 4.24184 18.046 4.23705 19.2908C4.23066 19.2957 4.21948 19.3038 4.22108 19.3071C4.22427 19.3186 4.23226 19.33 4.24024 19.3431Z" fill="black"/>
<path d="M76.9969 19.3431C76.9985 19.3791 76.9985 19.4151 77.0001 19.451C76.9857 19.4674 76.9713 19.4854 76.9569 19.5018C76.7637 19.5099 76.5688 19.523 76.3756 19.523C75.1762 19.5247 73.9768 19.5247 72.7438 19.5247C72.7438 19.4232 72.7438 19.3366 72.7438 19.2499C72.7438 17.0156 72.7614 14.7797 72.7343 12.5454C72.7247 11.8208 72.557 11.1109 71.9341 10.6366C71.8032 10.5368 71.6339 10.473 71.4726 10.4387C70.7842 10.298 70.1023 10.2915 69.5161 10.7609C69.029 11.1518 68.7639 11.6965 68.7511 12.3197C68.7176 13.9635 68.7208 15.6073 68.7144 17.2511C68.7112 17.7958 68.7256 18.3404 68.7224 18.8868C68.7208 19.0814 68.6936 19.276 68.6761 19.5067C68.5707 19.5132 68.4509 19.5263 68.3311 19.5263C67.1237 19.5279 65.9147 19.5296 64.7073 19.5214C64.6514 19.5214 64.562 19.4429 64.5492 19.3873C64.5253 19.2744 64.5428 19.1534 64.5428 19.0356C64.5428 12.866 64.5428 6.69795 64.5428 0.528314C64.5412 0.49233 64.5412 0.457982 64.5396 0.421998C64.5349 0.292783 64.5301 0.163568 64.5253 0.0343521C64.5476 0.0229026 64.5684 0.0114495 64.5907 0C65.9227 0.00490692 67.2531 0.008181 68.585 0.0130879C68.6202 0.0130879 68.6553 0.0212673 68.6905 0.0245386C68.7064 0.0490732 68.7208 0.0736049 68.7368 0.0981395C68.7336 2.76751 68.7288 5.43851 68.7256 8.10788C68.7256 8.16185 68.7304 8.21583 68.732 8.26981C68.716 8.36958 68.7 8.47099 68.6729 8.646C68.7911 8.53641 68.8534 8.47917 68.914 8.42192C69.2894 7.9803 69.719 7.59919 70.2476 7.3702C71.1132 6.99564 72.006 6.83207 72.961 6.94657C73.6095 7.02344 74.2227 7.15757 74.7993 7.46671C75.831 8.01792 76.481 8.88971 76.7765 10.0232C76.8915 10.4665 76.9442 10.9392 76.9489 11.3988C76.9761 14.0273 76.9809 16.6574 76.9937 19.2858C76.9873 19.2908 76.9761 19.2989 76.9761 19.3022C76.9809 19.3186 76.9889 19.33 76.9969 19.3431Z" fill="black"/>
<path d="M31.4034 19.5606C31.4034 19.1861 31.4034 18.8884 31.4034 18.5335C31.29 18.5842 31.199 18.6054 31.1351 18.6578C30.5027 19.1812 29.7904 19.5459 29.011 19.7749C28.337 19.9728 27.6567 19.9597 26.9619 19.9009C26.4956 19.8616 26.066 19.7406 25.6587 19.5476C25.2195 19.3382 24.7979 19.0781 24.397 18.7968C23.8205 18.3928 23.3653 17.8547 22.9964 17.2528C22.7456 16.8455 22.5141 16.4153 22.3464 15.9671C22.1579 15.4585 21.9966 14.9236 21.9263 14.3871C21.8545 13.8424 21.8672 13.2765 21.9215 12.7286C21.9774 12.1659 22.0605 11.5853 22.2569 11.0635C22.5045 10.406 22.8223 9.75824 23.2152 9.18086C23.763 8.37612 24.4913 7.73496 25.376 7.32277C26.2033 6.93676 27.0769 6.72904 27.9905 6.80755C29.2346 6.91386 30.3541 7.34404 31.322 8.2878C31.4737 7.86744 31.3539 7.48143 31.4178 7.09542C32.8041 7.09542 34.1935 7.09542 35.6037 7.09542C35.6069 7.16411 35.6149 7.24262 35.6149 7.3195C35.6149 11.299 35.6133 15.2785 35.6197 19.2581C35.6197 19.4952 35.559 19.5688 35.3227 19.5672C34.0274 19.5557 32.7322 19.5606 31.4034 19.5606ZM31.4354 13.3158C31.389 13.0279 31.3699 12.7318 31.2916 12.4554C31.0856 11.7292 30.6735 11.1126 30.006 10.8018C29.1946 10.4239 28.3354 10.3667 27.5225 10.8803C26.577 11.4773 26.1586 12.3867 26.133 13.4761C26.1203 13.988 26.3087 14.482 26.5866 14.9301C27.4954 16.3973 29.2282 16.6508 30.4356 15.6318C31.1495 15.0315 31.405 14.235 31.4354 13.3158Z" fill="#010000"/>
<path d="M62.3724 11.4593C61.0963 11.4593 59.8841 11.4593 58.6736 11.4593C58.664 10.4845 57.9501 9.81221 57.0749 9.64047C56.6756 9.56196 56.2524 9.51125 55.8515 9.55705C55.2398 9.62902 54.8038 10.0396 54.4732 10.5532C54.1187 11.1044 53.9877 11.7243 53.9063 12.3753C53.8152 13.1031 53.8711 13.813 54.0308 14.5114C54.2608 15.5173 54.6345 16.4431 55.703 16.8291C56.2125 17.0123 56.7203 16.9567 57.2218 16.7997C57.3783 16.7506 57.5237 16.6639 57.6786 16.6116C58.1657 16.4447 58.3685 16.0326 58.4899 15.5811C58.5538 15.3423 58.632 15.2425 58.894 15.2442C59.8793 15.2524 60.8648 15.2262 61.8517 15.2213C62.0977 15.2196 62.3436 15.2507 62.5912 15.2654C62.4794 16.5249 62.0418 17.606 61.1123 18.4402C60.3569 19.119 59.4833 19.5606 58.4979 19.7765C57.5828 19.9777 56.6564 20.0268 55.7269 19.9875C54.954 19.9548 54.2129 19.7487 53.483 19.4821C52.7995 19.2319 52.1942 18.8508 51.6799 18.3535C51.2775 17.9626 50.9453 17.4834 50.6355 17.0058C50.1164 16.2059 49.8641 15.2932 49.706 14.3593C49.5926 13.6952 49.6708 13.0295 49.7411 12.3589C49.8273 11.5476 50.0653 10.7871 50.4103 10.0755C50.7664 9.34114 51.2264 8.6689 51.878 8.13895C52.5152 7.62045 53.2099 7.25407 53.9813 7.01363C54.8901 6.73066 55.81 6.71758 56.7507 6.78137C57.4789 6.83207 58.1864 6.95311 58.8668 7.19355C59.3012 7.34566 59.718 7.58447 60.0997 7.84944C61.0756 8.5266 61.7431 9.45891 62.1328 10.594C62.2287 10.877 62.2925 11.1682 62.3724 11.4593Z" fill="#010101"/>
<path d="M38.8074 10.9097C38.373 10.9097 37.9402 10.9097 37.517 10.9097C37.517 9.63719 37.517 8.40065 37.517 7.12975C37.8971 7.12975 38.2484 7.1183 38.5998 7.13302C38.8234 7.14284 38.8936 7.04633 38.8921 6.8337C38.8793 5.75254 38.8729 4.67138 38.8649 3.59186C38.8649 3.56896 38.8649 3.54606 38.8649 3.5248C38.8952 3.50354 38.9256 3.48227 38.9559 3.45937C38.9815 3.45283 39.007 3.44629 39.0326 3.43811C40.3294 3.44138 41.6247 3.44302 42.9215 3.44629C42.9406 3.44629 42.9598 3.44629 42.9806 3.44465C43.0157 3.51008 43.078 3.5755 43.0796 3.64257C43.0892 4.05148 43.0844 4.46039 43.0844 4.8693C43.0844 8.11277 43.0844 11.3562 43.0844 14.5997C43.0844 15.3456 43.4677 15.8624 44.0889 16.1699C44.4163 16.3319 44.8044 16.3679 45.1638 16.4594C45.1782 16.4758 45.1925 16.4905 45.2085 16.5069C45.2053 17.5782 45.2037 18.6512 45.2005 19.7225C45.1941 19.7275 45.1814 19.7356 45.183 19.7373C45.1877 19.752 45.1957 19.7634 45.2037 19.7765C45.2053 19.8125 45.2085 19.8485 45.2101 19.8845C45.1957 19.9041 45.1813 19.9237 45.167 19.9434C45.0855 19.9597 45.0025 19.9941 44.921 19.9924C43.5092 19.9532 42.1277 19.7618 40.8708 19.0487C40.2719 18.7085 39.804 18.2145 39.4606 17.6011C39.146 17.0385 38.9847 16.4218 38.8825 15.7937C38.8346 15.4993 38.8857 15.1886 38.8857 14.8843C38.8857 13.5873 38.8825 12.2902 38.8809 10.9931L38.9032 10.9817V10.9555C38.8905 10.9375 38.8777 10.9179 38.8649 10.8999C38.8441 10.9048 38.8266 10.9064 38.8074 10.9097Z" fill="black"/>
<path d="M43.883 9.61266C43.8686 8.25017 44.9051 7.11667 46.2355 7.14939C47.5866 7.18374 48.4969 8.2698 48.5209 9.62738C48.5432 10.9441 47.4125 12.1005 46.1684 12.0841C44.9354 12.0661 43.8893 10.9784 43.883 9.61266Z" fill="#9747FE"/>
<path d="M68.914 8.42355C68.8517 8.4808 68.791 8.53805 68.6729 8.64764C68.7 8.47263 68.716 8.37121 68.732 8.27144C68.791 8.32214 68.8517 8.37285 68.914 8.42355Z" fill="#DEDEDE"/>
<path d="M64.5364 0.423645C64.538 0.459629 64.538 0.493977 64.5396 0.529961C64.5204 0.516876 64.4996 0.505424 64.4805 0.492339C64.4996 0.467805 64.5172 0.446544 64.5364 0.423645Z" fill="#4E4D4D"/>
<path d="M68.7335 0.0997899C68.7175 0.0752553 68.7032 0.0507187 68.6872 0.0261841C68.7032 0.0507187 68.7191 0.0752553 68.7335 0.0997899Z" fill="#787776"/>
<path d="M38.9033 10.9572V10.9833L38.881 10.9948C38.857 10.967 38.833 10.9375 38.8091 10.9097C38.8282 10.9065 38.8474 10.9048 38.865 10.9016C38.8762 10.9212 38.8889 10.9392 38.9033 10.9572Z" fill="#9B9B9B"/>
<path d="M38.8649 3.52316C38.8649 3.54606 38.8649 3.56896 38.8649 3.59022C38.8505 3.5755 38.8377 3.56078 38.8234 3.54606C38.8377 3.53952 38.8505 3.53134 38.8649 3.52316Z" fill="#3D3D3D"/>
<path d="M39.031 3.43811C39.0054 3.44465 38.9799 3.4512 38.9543 3.45937C38.9815 3.4512 39.0054 3.44465 39.031 3.43811Z" fill="#3D3D3D"/>
<path d="M64.5875 0C64.5651 0.0114495 64.5443 0.0229026 64.522 0.0343521C64.5443 0.0245382 64.5667 0.0130851 64.5875 0Z" fill="#787776"/>
<path d="M4.24028 19.3431C4.23229 19.33 4.22431 19.3186 4.21951 19.3055C4.21792 19.3022 4.2291 19.294 4.23549 19.2891C4.23708 19.3071 4.23868 19.3251 4.24028 19.3431Z" fill="#181716"/>
<path d="M76.9968 19.3431C76.9904 19.33 76.9808 19.3186 76.976 19.3038C76.9744 19.3006 76.9872 19.294 76.9936 19.2875C76.9952 19.3071 76.9952 19.3251 76.9968 19.3431Z" fill="#181717"/>
<path d="M76.9569 19.5034C76.9713 19.487 76.9856 19.469 77 19.4527C76.9856 19.469 76.9713 19.4854 76.9569 19.5034Z" fill="#181717"/>
<path d="M45.2006 19.7798C45.1942 19.7667 45.1846 19.7536 45.1798 19.7406C45.1782 19.7373 45.191 19.7307 45.1974 19.7258C45.199 19.7422 45.2006 19.7618 45.2006 19.7798Z" fill="#201F1F"/>
<path d="M31.4354 13.3158C31.405 14.235 31.1495 15.0315 30.4356 15.6335C29.2282 16.6508 27.4954 16.3989 26.5866 14.9318C26.3087 14.4836 26.1203 13.9896 26.1331 13.4777C26.1586 12.3867 26.5755 11.4773 27.5225 10.8819C28.337 10.3683 29.1963 10.4256 30.006 10.8034C30.6736 11.1142 31.0856 11.7292 31.2916 12.457C31.3715 12.7318 31.3906 13.0279 31.4354 13.3158Z" fill="#FBFAFB"/>
<path d="M38.9033 10.9572C38.8905 10.9392 38.8778 10.9195 38.865 10.9016C38.8762 10.9212 38.8889 10.9392 38.9033 10.9572Z" fill="#616161"/>
</svg>
