<svg viewBox="0 0 12 12" fill="none" xmlns="http://www.w3.org/2000/svg">
<path d="M10.677 8.68301C10.4685 8.88594 10.189 8.99948 9.89802 8.99948C9.60705 8.99948 9.32756 8.88594 9.11902 8.68301L6.00002 5.61701L2.88102 8.68301C2.67261 8.88617 2.39307 8.99988 2.10202 8.99988C1.81097 8.99988 1.53143 8.88617 1.32302 8.68301C1.22051 8.5833 1.13903 8.46405 1.08339 8.33231C1.02775 8.20057 0.999084 8.05902 0.999084 7.91601C0.999084 7.77301 1.02775 7.63145 1.08339 7.49971C1.13903 7.36797 1.22051 7.24872 1.32302 7.14901L5.22302 3.31601C5.43177 3.11272 5.71164 2.99896 6.00302 2.99896C6.2944 2.99896 6.57427 3.11272 6.78302 3.31601L10.677 7.15001C10.7793 7.24987 10.8605 7.36916 10.916 7.50088C10.9715 7.6326 11.0001 7.77408 11.0001 7.91701C11.0001 8.05994 10.9715 8.20142 10.916 8.33314C10.8605 8.46486 10.7793 8.58416 10.677 8.68401V8.68301Z" fill="currentColor"/>
</svg>
