<svg viewBox="0 0 12 12" fill="none" xmlns="http://www.w3.org/2000/svg">
<path d="M1.32298 3.31699C1.53151 3.11406 1.811 3.00052 2.10198 3.00052C2.39295 3.00052 2.67244 3.11406 2.88098 3.31699L5.99998 6.38299L9.11898 3.31699C9.32739 3.11383 9.60693 3.00012 9.89798 3.00012C10.189 3.00012 10.4686 3.11383 10.677 3.31699C10.7795 3.4167 10.861 3.53595 10.9166 3.66769C10.9722 3.79943 11.0009 3.94098 11.0009 4.08399C11.0009 4.22699 10.9722 4.36855 10.9166 4.50029C10.861 4.63203 10.7795 4.75128 10.677 4.85099L6.77698 8.68399C6.56823 8.88728 6.28836 9.00104 5.99698 9.00104C5.7056 9.00104 5.42573 8.88728 5.21698 8.68399L1.32298 4.84999C1.22072 4.75013 1.13945 4.63084 1.08397 4.49912C1.02849 4.3674 0.999908 4.22592 0.999908 4.08299C0.999908 3.94006 1.02849 3.79858 1.08397 3.66686C1.13945 3.53514 1.22072 3.41584 1.32298 3.31599V3.31699Z" fill="currentColor"/>
</svg>
