<svg viewBox="0 0 12 12" fill="none" xmlns="http://www.w3.org/2000/svg">
<path d="M8.68301 1.32304C8.88594 1.53158 8.99948 1.81107 8.99948 2.10204C8.99948 2.39301 8.88594 2.6725 8.68301 2.88104L5.61701 6.00004L8.68301 9.11904C8.88617 9.32745 8.99988 9.60699 8.99988 9.89804C8.99988 10.1891 8.88617 10.4686 8.68301 10.677C8.5833 10.7796 8.46405 10.861 8.33231 10.9167C8.20057 10.9723 8.05902 11.001 7.91601 11.001C7.77301 11.001 7.63145 10.9723 7.49971 10.9167C7.36797 10.861 7.24872 10.7796 7.14901 10.677L3.31601 6.77704C3.11272 6.56829 2.99896 6.28842 2.99896 5.99704C2.99896 5.70566 3.11272 5.42579 3.31601 5.21704L7.15001 1.32304C7.24987 1.22078 7.36916 1.13951 7.50088 1.08403C7.6326 1.02855 7.77408 0.999969 7.91701 0.999969C8.05994 0.999969 8.20142 1.02855 8.33314 1.08403C8.46486 1.13951 8.58416 1.22078 8.68401 1.32304H8.68301Z" fill="currentColor"/>
</svg>
