<svg viewBox="0 0 12 12" fill="none" xmlns="http://www.w3.org/2000/svg">
<path d="M3.31699 10.677C3.11406 10.4684 3.00052 10.1889 3.00052 9.89796C3.00052 9.60699 3.11406 9.3275 3.31699 9.11896L6.38299 5.99996L3.31699 2.88096C3.11383 2.67255 3.00012 2.39301 3.00012 2.10196C3.00012 1.81091 3.11383 1.53137 3.31699 1.32296C3.4167 1.22045 3.53595 1.13897 3.66769 1.08333C3.79943 1.02769 3.94098 0.999023 4.08399 0.999023C4.22699 0.999023 4.36855 1.02769 4.50029 1.08333C4.63203 1.13897 4.75128 1.22045 4.85099 1.32296L8.68399 5.22296C8.88728 5.43171 9.00104 5.71158 9.00104 6.00296C9.00104 6.29434 8.88728 6.57421 8.68399 6.78296L4.84999 10.677C4.75013 10.7792 4.63084 10.8605 4.49912 10.916C4.3674 10.9714 4.22592 11 4.08299 11C3.94006 11 3.79858 10.9714 3.66686 10.916C3.53514 10.8605 3.41584 10.7792 3.31599 10.677H3.31699Z" fill="currentColor"/>
</svg>
