<svg viewBox="0 0 24 24" fill="none" xmlns="http://www.w3.org/2000/svg">
    <g clip-path="url(#clip0_103_1662)">
        <path
            d="M7.58 11.2C7.53 11.48 7.5 11.76 7.5 12.05C7.5 13.24 7.97 14.39 8.82 15.23C9.66 16.07 10.81 16.55 12 16.55C12.33 16.55 12.65 16.51 12.97 16.44L7.59 11.2H7.58Z"
            fill="currentColor"
        />
        <path
            d="M11.9999 19.05C9.95993 19.05 7.97993 18.36 6.38993 17.09C4.79993 15.82 3.67993 14.04 3.22993 12.05C3.51993 10.77 4.08993 9.58003 4.87993 8.56003L3.43993 7.16003C2.31993 8.55003 1.51993 10.22 1.17993 12.05C2.11993 17.17 6.60993 21.05 11.9999 21.05C13.6599 21.05 15.2299 20.68 16.6499 20.02L15.0899 18.5C14.1099 18.86 13.0699 19.05 12.0099 19.05H11.9999Z"
            fill="currentColor"
        />
        <path
            fill-rule="evenodd"
            clip-rule="evenodd"
            d="M22.82 12.05C21.88 6.93004 17.39 3.05004 12 3.05004C9.80005 3.05004 7.76005 3.70004 6.05005 4.81004L3.20005 2.04004L1.80005 3.47004L4.46005 6.06004L5.89005 7.46004L16.53 17.82L18.01 19.26L20.8 21.98L22.2001 20.55L19.59 18.01C21.23 16.45 22.4 14.39 22.82 12.07V12.05ZM14.15 12.7L11.02 9.65004C11.29 9.55004 11.58 9.49004 11.88 9.49004C12.52 9.49004 13.14 9.74004 13.59 10.2C14.04 10.65 14.3 11.27 14.3 11.91C14.3 12.18 14.24 12.45 14.16 12.7H14.15ZM14.95 8.83004C14.13 8.01004 13.03 7.55004 11.87 7.55004C11.04 7.55004 10.24 7.79004 9.55005 8.23004L7.52005 6.25004C8.87005 5.47004 10.41 5.06004 11.99 5.06004C14.03 5.06004 16.01 5.75004 17.6 7.02004C19.19 8.29004 20.3101 10.06 20.7701 12.05C20.3701 13.8 19.46 15.38 18.16 16.61L15.6 14.12C15.99 13.45 16.22 12.7 16.22 11.91C16.22 10.76 15.76 9.65004 14.94 8.83004H14.95Z"
            fill="currentColor"
        />
    </g>
    <defs>
        <clipPath id="clip0_103_1662">
            <rect width="24" height="24" fill="white" />
        </clipPath>
    </defs>
</svg>
