<svg  viewBox="0 0 24 24" fill="none" xmlns="http://www.w3.org/2000/svg">
<path d="M16.5047 17.3438C16.0524 17.3438 15.6844 16.9758 15.6844 16.5235V10.4977C15.6844 10.0453 16.0524 9.67737 16.5047 9.67737H19.7484C20.2008 9.67737 20.5688 10.0453 20.5688 10.4977V16.5235C20.5688 16.9758 20.2008 17.3438 19.7484 17.3438H16.5047ZM17.325 15.7031H18.9281V11.318H17.325V15.7031ZM4.24689 17.3438C3.79454 17.3438 3.42657 16.9758 3.42657 16.5235V7.54221C3.42657 7.08987 3.79454 6.7219 4.24689 6.7219H7.49064C7.94298 6.7219 8.31095 7.08987 8.31095 7.54221V16.5235C8.31095 16.9758 7.94298 17.3438 7.49064 17.3438H4.24689ZM5.0672 15.7031H6.67032V8.36252H5.0672V15.7031ZM10.3758 17.3438C9.92345 17.3438 9.55548 16.9758 9.55548 16.5235V2.99768C9.55548 2.54534 9.92345 2.17737 10.3758 2.17737H13.6172C14.0695 2.17737 14.4375 2.54534 14.4375 2.99768V16.5235C14.4375 16.9758 14.0695 17.3438 13.6172 17.3438H10.3758ZM11.1961 15.7031H12.7969V3.81799H11.1938V15.7031H11.1961ZM2.58751 20.2875C2.13517 20.2875 1.7672 19.9172 1.76954 19.4649C1.76954 19.0125 2.13751 18.6469 2.58985 18.6469L21.4125 18.6938C21.8649 18.6938 22.2328 19.0641 22.2305 19.5164C22.2305 19.9688 21.8625 20.3344 21.4102 20.3344L2.58751 20.2875Z" fill="currentColor"/>
</svg>
